<!-- Exported by Character Map UWP -->
<svg height="100%" viewBox="0 0 1024 1024" width="100%" xmlns="http://www.w3.org/2000/svg" xmlns:xlink="http://www.w3.org/1999/xlink">
  <path d="M1024,512C1024,558.667 1017.83,604 1005.5,648C993.167,692 975.5,733.333 952.5,772C929.5,810.667 901.583,846.083 868.75,878.25C835.917,910.417 799.167,937.667 758.5,960L896,960L896,1024L640,1024L640,768L704,768L704,915C743,896.667 778.25,873.417 809.75,845.25C841.25,817.083 868.083,785.5 890.25,750.5C912.417,715.5 929.583,677.75 941.75,637.25C953.917,596.75 960,555 960,512C960,471 954.667,431.417 944,393.25C933.333,355.083 918.25,319.417 898.75,286.25C879.25,253.083 855.833,222.833 828.5,195.5C801.167,168.167 770.917,144.75 737.75,125.25C704.583,105.75 668.917,90.6667 630.75,80C592.583,69.3334 553,64.0001 512,64C471,64.0001 431.417,69.3334 393.25,80C355.083,90.6667 319.417,105.75 286.25,125.25C253.083,144.75 222.833,168.167 195.5,195.5C168.167,222.833 144.75,253.083 125.25,286.25C105.75,319.417 90.6667,355.083 80,393.25C69.3333,431.417 64,471 64,512C64,562 72,610.167 88,656.5C104,702.833 126.5,745 155.5,783C184.5,821 219.167,853.917 259.5,881.75C299.833,909.583 344.167,930.167 392.5,943.5L375.5,1005C338.833,994.667 304.083,980.667 271.25,963C238.417,945.333 208.083,924.667 180.25,901C152.417,877.333 127.333,850.833 105,821.5C82.6667,792.167 63.75,761 48.25,728C32.75,695 20.8333,660.333 12.5,624C4.16667,587.667 0,550.333 0,512C0,465 6.08333,419.667 18.25,376C30.4167,332.333 47.6667,291.583 70,253.75C92.3333,215.917 119.083,181.417 150.25,150.25C181.417,119.083 215.917,92.3334 253.75,70C291.583,47.6667 332.333,30.4167 376,18.25C419.667,6.08337 465,0 512,0C559,0 604.333,6.08337 648,18.25C691.667,30.4167 732.417,47.6667 770.25,70C808.083,92.3334 842.583,119.083 873.75,150.25C904.917,181.417 931.667,215.917 954,253.75C976.333,291.583 993.583,332.333 1005.75,376C1017.92,419.667 1024,465 1024,512ZM768,512L384,733.5L384,290.5ZM448,623L640,512L448,401Z" fill="#FFFFFF" fill-opacity="1">
  </path>
</svg>